<mxfile host="app.diagrams.net" agent="Mozilla/5.0 (Windows NT 10.0; Win64; x64) AppleWebKit/537.36 (KHTML, like Gecko) Chrome/131.0.0.0 Safari/537.36" version="25.0.3">
  <diagram name="Page-1" id="ncddZihTLWJMlfTjUSpS">
    <mxGraphModel dx="920" dy="493" grid="1" gridSize="10" guides="1" tooltips="1" connect="1" arrows="1" fold="1" page="1" pageScale="1" pageWidth="850" pageHeight="1100" math="0" shadow="0">
      <root>
        <mxCell id="0" />
        <mxCell id="1" parent="0" />
        <mxCell id="UbkMghXz4nUbj46d38Ch-2" style="edgeStyle=orthogonalEdgeStyle;rounded=0;orthogonalLoop=1;jettySize=auto;html=1;" parent="1" source="UbkMghXz4nUbj46d38Ch-1" edge="1">
          <mxGeometry relative="1" as="geometry">
            <mxPoint x="260" y="230" as="targetPoint" />
          </mxGeometry>
        </mxCell>
        <mxCell id="UbkMghXz4nUbj46d38Ch-1" value="Start" style="strokeWidth=2;html=1;shape=mxgraph.flowchart.start_1;whiteSpace=wrap;" parent="1" vertex="1">
          <mxGeometry x="20" y="210" width="90" height="40" as="geometry" />
        </mxCell>
        <mxCell id="UbkMghXz4nUbj46d38Ch-10" value="end" style="strokeWidth=2;html=1;shape=mxgraph.flowchart.start_1;whiteSpace=wrap;" parent="1" vertex="1">
          <mxGeometry x="700" y="198" width="120" height="60" as="geometry" />
        </mxCell>
        <mxCell id="tuCBu0ls0KZvBoLfCwvb-1" value="Nhap a,b" style="shape=parallelogram;html=1;strokeWidth=2;perimeter=parallelogramPerimeter;whiteSpace=wrap;rounded=1;arcSize=12;size=0.23;" vertex="1" parent="1">
          <mxGeometry x="140" y="208" width="80" height="40" as="geometry" />
        </mxCell>
        <mxCell id="tuCBu0ls0KZvBoLfCwvb-6" style="edgeStyle=orthogonalEdgeStyle;rounded=0;orthogonalLoop=1;jettySize=auto;html=1;" edge="1" parent="1" source="tuCBu0ls0KZvBoLfCwvb-2">
          <mxGeometry relative="1" as="geometry">
            <mxPoint x="560" y="230" as="targetPoint" />
          </mxGeometry>
        </mxCell>
        <mxCell id="tuCBu0ls0KZvBoLfCwvb-2" value="sum = a + b" style="rounded=1;whiteSpace=wrap;html=1;absoluteArcSize=1;arcSize=14;strokeWidth=2;" vertex="1" parent="1">
          <mxGeometry x="370" y="194" width="140" height="72" as="geometry" />
        </mxCell>
        <mxCell id="tuCBu0ls0KZvBoLfCwvb-5" style="edgeStyle=orthogonalEdgeStyle;rounded=0;orthogonalLoop=1;jettySize=auto;html=1;entryX=0;entryY=0.5;entryDx=0;entryDy=0;" edge="1" parent="1" source="tuCBu0ls0KZvBoLfCwvb-3" target="tuCBu0ls0KZvBoLfCwvb-2">
          <mxGeometry relative="1" as="geometry" />
        </mxCell>
        <mxCell id="tuCBu0ls0KZvBoLfCwvb-3" value="int sum" style="shape=parallelogram;html=1;strokeWidth=2;perimeter=parallelogramPerimeter;whiteSpace=wrap;rounded=1;arcSize=12;size=0.23;" vertex="1" parent="1">
          <mxGeometry x="250" y="212" width="80" height="38" as="geometry" />
        </mxCell>
        <mxCell id="tuCBu0ls0KZvBoLfCwvb-7" value="sum" style="strokeWidth=2;html=1;shape=mxgraph.flowchart.display;whiteSpace=wrap;" vertex="1" parent="1">
          <mxGeometry x="560" y="198" width="100" height="60" as="geometry" />
        </mxCell>
        <mxCell id="tuCBu0ls0KZvBoLfCwvb-8" style="edgeStyle=orthogonalEdgeStyle;rounded=0;orthogonalLoop=1;jettySize=auto;html=1;entryX=0;entryY=0.5;entryDx=0;entryDy=0;entryPerimeter=0;" edge="1" parent="1" source="tuCBu0ls0KZvBoLfCwvb-7" target="UbkMghXz4nUbj46d38Ch-10">
          <mxGeometry relative="1" as="geometry" />
        </mxCell>
      </root>
    </mxGraphModel>
  </diagram>
</mxfile>
